name Run_400 02_newCOP3_v24.mot
datacolumns 19
datarows 148
range 2.705 2.7785
DataType=double
version=3
OpenSimVersion=4.3-2021-08-27-4bc7ad9
endheader
time	R_ground_force_vx	R_ground_force_vy	R_ground_force_vz	R_ground_force_px	R_ground_force_py	R_ground_force_pz	L_ground_force_vx	L_ground_force_vy	L_ground_force_vz	L_ground_force_px	L_ground_force_py	L_ground_force_pz	R_ground_torque_x	R_ground_torque_y	R_ground_torque_z	L_ground_torque_x	L_ground_torque_y	L_ground_torque_z
2.705	0	0	0	0	0	0	0	0	0	0	0	0	0	0	0	0	0	0
2.7055	0	0	0	0	0	0	0	0	0	0	0	0	0	0	0	0	0	0
2.706	0	0	0	0	0	0	0	0	0	0	0	0	0	0	0	0	0	0
2.7065	0	0	0	0	0	0	0	0	0	0	0	0	0	0	0	0	0	0
2.707	0	0	0	0	0	0	0	0	0	0	0	0	0	0	0	0	0	0
2.7075	0	0	0	0	0	0	0	0	0	0	0	0	0	0	0	0	0	0
2.708	0	0	0	0	0	0	0	0	0	0	0	0	0	0	0	0	0	0
2.7085	0	0	0	0	0	0	0	0	0	0	0	0	0	0	0	0	0	0
2.709	0	0	0	0	0	0	0	0	0	0	0	0	0	0	0	0	0	0
2.7095	0	0	0	0	0	0	0	0	0	0	0	0	0	0	0	0	0	0
2.71	0	0	0	0	0	0	0	0	0	0	0	0	0	0	0	0	0	0
2.7105	0	0	0	0	0	0	0	0	0	0	0	0	0	0	0	0	0	0
2.711	0	0	0	0	0	0	0	0	0	0	0	0	0	0	0	0	0	0
2.7115	0	0	0	0	0	0	0	0	0	0	0	0	0	0	0	0	0	0
2.712	0	0	0	0	0	0	0	0	0	0	0	0	0	0	0	0	0	0
2.7125	0	0	0	0	0	0	0	0	0	0	0	0	0	0	0	0	0	0
2.713	0	0	0	0	0	0	0	0	0	0	0	0	0	0	0	0	0	0
2.7135	0	0	0	0	0	0	0	0	0	0	0	0	0	0	0	0	0	0
2.714	0	0	0	0	0	0	0	0	0	0	0	0	0	0	0	0	0	0
2.7145	0	0	0	0	0	0	0	0	0	0	0	0	0	0	0	0	0	0
2.715	0	0	0	0	0	0	0	0	0	0	0	0	0	0	0	0	0	0
2.7155	0	0	0	0	0	0	0	0	0	0	0	0	0	0	0	0	0	0
2.716	0	0	0	0	0	0	0	0	0	0	0	0	0	0	0	0	0	0
2.7165	0	0	0	0	0	0	0	0	0	0	0	0	0	0	0	0	0	0
2.717	0	0	0	0	0	0	0	0	0	0	0	0	0	0	0	0	0	0
2.7175	0	0	0	0	0	0	0	0	0	0	0	0	0	0	0	0	0	0
2.718	0	0	0	0	0	0	0	0	0	0	0	0	0	0	0	0	0	0
2.7185	0	0	0	0	0	0	0	0	0	0	0	0	0	0	0	0	0	0
2.719	0	0	0	0	0	0	0	0	0	0	0	0	0	0	0	0	0	0
2.7195	0	0	0	0	0	0	0	0	0	0	0	0	0	0	0	0	0	0
2.72	0	0	0	0	0	0	0	0	0	0	0	0	0	0	0	0	0	0
2.7205	0	0	0	0	0	0	0	0	0	0	0	0	0	0	0	0	0	0
2.721	0	0	0	0	0	0	0	0	0	0	0	0	0	0	0	0	0	0
2.7215	0	0	0	0	0	0	0	0	0	0	0	0	0	0	0	0	0	0
2.722	0	0	0	0	0	0	0	0	0	0	0	0	0	0	0	0	0	0
2.7225	0	0	0	0	0	0	0	0	0	0	0	0	0	0	0	0	0	0
2.723	0	0	0	0	0	0	0	0	0	0	0	0	0	0	0	0	0	0
2.7235	-15.3788	51.042973	-11.483627	1.120268	0	-0.267137	0	0	0	0	0	0	-0	3.351225	-0	0	0	0
2.724	-16.290886	54.646946	-12.034113	1.119822	0	-0.268158	0	0	0	0	0	0	-0	3.459381	-0	0	0	0
2.7245	-17.251608	58.464729	-12.594495	1.119362	0	-0.26908	0	0	0	0	0	0	-0	3.565717	-0	0	0	0
2.725	-18.261959	62.504505	-13.164375	1.118891	0	-0.269914	0	0	0	0	0	0	-0	3.670113	-0	0	0	0
2.7255	-19.322809	66.77443700000001	-13.74332	1.118408	0	-0.270671	0	0	0	0	0	0	-0	3.772449	-0	0	0	0
2.726	-20.434889	71.282616	-14.330859	1.117916	0	-0.271358	0	0	0	0	0	0	-0	3.872608	-0	0	0	0
2.7265	-21.598772	76.037086	-14.926487	1.117416	0	-0.271984	0	0	0	0	0	0	-0	3.97047	-0	0	0	0
2.727	-22.814871	81.045761	-15.529656	1.116906	0	-0.272556	0	0	0	0	0	0	-0	4.065918	-0	0	0	0
2.7275	-24.08341	86.31643699999999	-16.139784	1.116389	0	-0.273081	0	0	0	0	0	0	-0	4.158834	-0	0	0	0
2.728	-25.404423	91.85674299999999	-16.756243	1.115863	0	-0.273565	0	0	0	0	0	0	-0	4.249102	-0	0	0	0
2.7285	-26.777731	97.674103	-17.378372	1.115329	0	-0.274012	0	0	0	0	0	0	-0	4.336607	-0	0	0	0
2.729	-28.202936	103.775749	-18.005463	1.114786	0	-0.274428	0	0	0	0	0	0	-0	4.421234	-0	0	0	0
2.7295	-29.679407	110.16864	-18.636766	1.114234	0	-0.274817	0	0	0	0	0	0	-0	4.502872	-0	0	0	0
2.73	-31.20627	116.859482	-19.271494	1.113672	0	-0.275182	0	0	0	0	0	0	-0	4.581409	-0	0	0	0
2.7305	-32.782394	123.854668	-19.908813	1.113101	0	-0.275527	0	0	0	0	0	0	-0	4.656734	-0	0	0	0
2.731	-34.406384	131.160248	-20.547846	1.112519	0	-0.275854	0	0	0	0	0	0	-0	4.728741	-0	0	0	0
2.7315	-36.07658	138.781952	-21.187675	1.111926	0	-0.276166	0	0	0	0	0	0	-0	4.797324	-0	0	0	0
2.732	-37.791042	146.725082	-21.827339	1.111322	0	-0.276467	0	0	0	0	0	0	-0	4.86238	-0	0	0	0
2.7325	-39.54755	154.994598	-22.465834	1.110705	0	-0.276756	0	0	0	0	0	0	-0	4.923805	-0	0	0	0
2.733	-41.343605	163.594986	-23.102114	1.110075	0	-0.277037	0	0	0	0	0	0	-0	4.981503	-0	0	0	0
2.7335	-43.176418	172.530334	-23.73509	1.109432	0	-0.27731	0	0	0	0	0	0	-0	5.035377	-0	0	0	0
2.734	-45.042938	181.80423	-24.363636	1.108774	0	-0.277578	0	0	0	0	0	0	-0	5.085332	-0	0	0	0
2.7345	-46.939827	191.419815	-24.986584	1.108102	0	-0.277841	0	0	0	0	0	0	-0	5.13128	-0	0	0	0
2.735	-48.863483	201.37973	-25.602726	1.107414	0	-0.2781	0	0	0	0	0	0	-0	5.173131	-0	0	0	0
2.7355	-50.810051	211.686111	-26.210821	1.10671	0	-0.278356	0	0	0	0	0	0	-0	5.210802	-0	0	0	0
2.736	-52.77544	222.340576	-26.809591	1.10599	0	-0.27861	0	0	0	0	0	0	-0	5.244212	-0	0	0	0
2.7365	-54.755329	233.344238	-27.397722	1.105253	0	-0.278862	0	0	0	0	0	0	-0	5.273283	-0	0	0	0
2.737	-56.745197	244.697662	-27.973875	1.104498	0	-0.279113	0	0	0	0	0	0	-0	5.297941	-0	0	0	0
2.7375	-58.74033	256.400879	-28.536674	1.103725	0	-0.279364	0	0	0	0	0	0	-0	5.318118	-0	0	0	0
2.738	-60.735874	268.453369	-29.084723	1.102934	0	-0.279614	0	0	0	0	0	0	-0	5.333746	-0	0	0	0
2.7385	-62.726845	280.854065	-29.616602	1.102124	0	-0.279865	0	0	0	0	0	0	-0	5.344765	-0	0	0	0
2.739	-64.708153	293.601349	-30.130867	1.101295	0	-0.280115	0	0	0	0	0	0	-0	5.351116	-0	0	0	0
2.7395	-66.67466	306.693024	-30.62606	1.100447	0	-0.280366	0	0	0	0	0	0	-0	5.352746	-0	0	0	0
2.74	-68.621216	320.126373	-31.100708	1.09958	0	-0.280618	0	0	0	0	0	0	-0	5.349607	-0	0	0	0
2.7405	-70.542664	333.898071	-31.553331	1.098692	0	-0.28087	0	0	0	0	0	0	-0	5.341655	-0	0	0	0
2.741	-72.43392900000001	348.004211	-31.982441	1.097785	0	-0.281122	0	0	0	0	0	0	-0	5.328849	-0	0	0	0
2.7415	-74.290031	362.440338	-32.386547	1.096858	0	-0.281375	0	0	0	0	0	0	-0	5.311157	-0	0	0	0
2.742	-76.106155	377.201416	-32.764168	1.095911	0	-0.281629	0	0	0	0	0	0	-0	5.288548	-0	0	0	0
2.7425	-77.877678	392.281769	-33.113819	1.094945	0	-0.281883	0	0	0	0	0	0	-0	5.260997	-0	0	0	0
2.743	-79.60020400000001	407.675171	-33.43404	1.093958	0	-0.282137	0	0	0	0	0	0	-0	5.228487	-0	0	0	0
2.7435	-81.26965300000001	423.374756	-33.723377	1.092953	0	-0.282391	0	0	0	0	0	0	-0	5.191002	-0	0	0	0
2.744	-82.882278	439.373047	-33.980408	1.091928	0	-0.282646	0	0	0	0	0	0	-0	5.148534	-0	0	0	0
2.7445	-84.434715	455.661926	-34.203735	1.090884	0	-0.2829	0	0	0	0	0	0	-0	5.10108	-0	0	0	0
2.745	-85.92403400000001	472.232697	-34.391991	1.089822	0	-0.283155	0	0	0	0	0	0	-0	5.048642	-0	0	0	0
2.7455	-87.34775500000001	489.075928	-34.54385	1.088742	0	-0.283409	0	0	0	0	0	0	-0	4.991229	-0	0	0	0
2.746	-88.703926	506.18158	-34.658028	1.087644	0	-0.283662	0	0	0	0	0	0	-0	4.928853	-0	0	0	0
2.7465	-89.991135	523.539001	-34.733292	1.086529	0	-0.283915	0	0	0	0	0	0	-0	4.861534	-0	0	0	0
2.747	-91.208519	541.136719	-34.768471	1.085397	0	-0.284167	0	0	0	0	0	0	-0	4.789297	-0	0	0	0
2.7475	-92.355835	558.962769	-34.76244	1.084249	0	-0.284419	0	0	0	0	0	0	-0	4.712172	-0	0	0	0
2.748	-93.433441	577.004333	-34.714153	1.083087	0	-0.284669	0	0	0	0	0	0	-0	4.630196	-0	0	0	0
2.7485	-94.442322	595.248108	-34.622631	1.08191	0	-0.284917	0	0	0	0	0	0	-0	4.543411	-0	0	0	0
2.749	-95.38408699999999	613.679993	-34.486977	1.080719	0	-0.285164	0	0	0	0	0	0	-0	4.451865	-0	0	0	0
2.7495	-96.26097900000001	632.285156	-34.30637	1.079515	0	-0.28541	0	0	0	0	0	0	-0	4.355612	-0	0	0	0
2.75	-97.075867	651.048401	-34.080082	1.078299	0	-0.285654	0	0	0	0	0	0	-0	4.254712	-0	0	0	0
2.7505	-97.832207	669.9535519999999	-33.807476	1.077072	0	-0.285895	0	0	0	0	0	0	-0	4.149229	-0	0	0	0
2.751	-98.534058	688.98407	-33.488014	1.075834	0	-0.286135	0	0	0	0	0	0	-0	4.039236	-0	0	0	0
2.7515	-99.18598900000001	708.122803	-33.121265	1.074587	0	-0.286373	0	0	0	0	0	0	-0	3.924809	-0	0	0	0
2.752	-99.793114	727.352051	-32.706894	1.073331	0	-0.286608	0	0	0	0	0	0	-0	3.806031	-0	0	0	0
2.7525	-100.360985	746.653503	-32.244686	1.072067	0	-0.286841	0	0	0	0	0	0	-0	3.682989	-0	0	0	0
2.753	-100.895561	766.008606	-31.734541	1.070797	0	-0.287071	0	0	0	0	0	0	-0	3.555778	-0	0	0	0
2.7535	-101.403175	785.398315	-31.176472	1.069521	0	-0.287299	0	0	0	0	0	0	-0	3.424496	-0	0	0	0
2.754	-101.890404	804.803162	-30.570614	1.068239	0	-0.287524	0	0	0	0	0	0	-0	3.289248	-0	0	0	0
2.7545	-102.364082	824.2035519999999	-29.917233	1.066954	0	-0.287746	0	0	0	0	0	0	-0	3.150145	-0	0	0	0
2.755	-102.831146	843.579712	-29.216711	1.065665	0	-0.287965	0	0	0	0	0	0	-0	3.007301	-0	0	0	0
2.7555	-103.298637	862.91156	-28.469564	1.064374	0	-0.288181	0	0	0	0	0	0	-0	2.860836	-0	0	0	0
2.756	-103.773552	882.179077	-27.676435	1.063081	0	-0.288395	0	0	0	0	0	0	-0	2.710875	-0	0	0	0
2.7565	-104.262833	901.362305	-26.8381	1.061787	0	-0.288605	0	0	0	0	0	0	-0	2.557549	-0	0	0	0
2.757	-104.773224	920.441284	-25.955462	1.060493	0	-0.288812	0	0	0	0	0	0	-0	2.400991	-0	0	0	0
2.7575	-105.311256	939.396362	-25.029552	1.0592	0	-0.289017	0	0	0	0	0	0	-0	2.241342	-0	0	0	0
2.758	-105.883133	958.208069	-24.061535	1.057907	0	-0.289218	0	0	0	0	0	0	-0	2.078744	-0	0	0	0
2.7585	-106.494682	976.8573	-23.0527	1.056617	0	-0.289416	0	0	0	0	0	0	-0	1.913346	-0	0	0	0
2.759	-107.151291	995.325439	-22.004461	1.055329	0	-0.289611	0	0	0	0	0	0	-0	1.745299	-0	0	0	0
2.7595	-107.857819	1013.59436	-20.918362	1.054044	0	-0.289803	0	0	0	0	0	0	-0	1.57476	-0	0	0	0
2.76	-108.618607	1031.646484	-19.796061	1.052762	0	-0.289992	0	0	0	0	0	0	-0	1.401887	-0	0	0	0
2.7605	-109.437363	1049.464844	-18.639332	1.051484	0	-0.290179	0	0	0	0	0	0	-0	1.226843	-0	0	0	0
2.761	-110.317184	1067.033325	-17.450068	1.05021	0	-0.290362	0	0	0	0	0	0	-0	1.049795	-0	0	0	0
2.7615	-111.260483	1084.33667	-16.230263	1.04894	0	-0.290542	0	0	0	0	0	0	-0	0.870912	-0	0	0	0
2.762	-112.268997	1101.360352	-14.982019	1.047674	0	-0.29072	0	0	0	0	0	0	-0	0.690367	-0	0	0	0
2.7625	-113.343788	1118.09082	-13.707534	1.046413	0	-0.290895	0	0	0	0	0	0	-0	0.508333	-0	0	0	0
2.763	-114.485184	1134.515381	-12.409095	1.045156	0	-0.291067	0	0	0	0	0	0	-0	0.324988	-0	0	0	0
2.7635	-115.692848	1150.622559	-11.089074	1.043904	0	-0.291236	0	0	0	0	0	0	-0	0.140512	-0	0	0	0
2.764	-116.965759	1166.401855	-9.749922	1.042656	0	-0.291403	0	0	0	0	0	0	0	-0.044914	0	0	0	0
2.7645	-118.302254	1181.843628	-8.394157999999999	1.041412	0	-0.291568	0	0	0	0	0	0	0	-0.231107	0	0	0	0
2.765	-119.70002	1196.939819	-7.024363	1.040173	0	-0.29173	0	0	0	0	0	0	0	-0.417882	0	0	0	0
2.7655	-121.156174	1211.682983	-5.643171	1.038937	0	-0.29189	0	0	0	0	0	0	0	-0.605054	0	0	0	0
2.766	-122.667274	1226.067139	-4.253263	1.037705	0	-0.292047	0	0	0	0	0	0	0	-0.792436	0	0	0	0
2.7665	-124.229385	1240.08728	-2.857355	1.036475	0	-0.292203	0	0	0	0	0	0	0	-0.97984	0	0	0	0
2.767	-125.838112	1253.739746	-1.45819	1.035248	0	-0.292356	0	0	0	0	0	0	0	-1.167078	0	0	0	0
2.7675	-127.488663	1267.021851	-0.05853	1.034024	0	-0.292508	0	0	0	0	0	0	0	-1.353962	0	0	0	0
2.768	-129.175903	1279.931885	1.338857	1.0328	0	-0.292658	0	0	0	0	0	0	0	-1.540305	0	0	0	0
2.7685	-130.894409	1292.469727	2.7312	1.031578	0	-0.292806	0	0	0	0	0	0	0	-1.725917	0	0	0	0
2.769	-132.638504	1304.635742	4.11574	1.030357	0	-0.292952	0	0	0	0	0	0	0	-1.910613	0	0	0	0
2.7695	-134.40239	1316.431641	5.489739	1.029135	0	-0.293096	0	0	0	0	0	0	0	-2.094204	0	0	0	0
2.77	-136.180084	1327.860107	6.850486	1.027913	0	-0.293239	0	0	0	0	0	0	0	-2.276507	0	0	0	0
2.7705	-137.965576	1338.924805	8.195309999999999	1.02669	0	-0.29338	0	0	0	0	0	0	0	-2.457337	0	0	0	0
2.771	-139.752838	1349.630249	9.521585	1.025465	0	-0.29352	0	0	0	0	0	0	0	-2.636511	0	0	0	0
2.7715	-141.535858	1359.981689	10.826743	1.024238	0	-0.293658	0	0	0	0	0	0	0	-2.813849	0	0	0	0
2.772	-143.308701	1369.985474	12.108283	1.023007	0	-0.293794	0	0	0	0	0	0	0	-2.989173	0	0	0	0
2.7725	-145.065582	1379.64856	13.363774	1.021773	0	-0.293929	0	0	0	0	0	0	0	-3.162305	0	0	0	0
2.773	-146.800797	1388.978638	14.590868	1.020536	0	-0.294063	0	0	0	0	0	0	0	-3.333072	0	0	0	0
2.7735	-148.508911	1397.983765	15.787306	1.019293	0	-0.294195	0	0	0	0	0	0	0	-3.501303	0	0	0	0
2.774	-150.184647	1406.672974	16.950926	1.018046	0	-0.294325	0	0	0	0	0	0	0	-3.666831	0	0	0	0
2.7745	-151.822998	1415.05542	18.079666	1.016793	0	-0.294454	0	0	0	0	0	0	0	-3.829489	0	0	0	0
2.775	-153.419174	1423.141113	19.171576	1.015535	0	-0.294581	0	0	0	0	0	0	0	-3.989118	0	0	0	0
2.7755	-154.968704	1430.940186	20.224821	1.01427	0	-0.294706	0	0	0	0	0	0	0	-4.14556	0	0	0	0
2.776	-156.467392	1438.463013	21.237686	1.012998	0	-0.29483	0	0	0	0	0	0	0	-4.29866	0	0	0	0
2.7765	-157.911316	1445.720459	22.208576	1.011719	0	-0.294951	0	0	0	0	0	0	0	-4.448269	0	0	0	0
2.777	-159.29689	1452.723267	23.136032	1.010433	0	-0.29507	0	0	0	0	0	0	0	-4.594242	0	0	0	0
2.7775	-160.620819	1459.482666	24.018723	1.00914	0	-0.295188	0	0	0	0	0	0	0	-4.736437	0	0	0	0
2.778	-161.880112	1466.009766	24.85545	1.007839	0	-0.295302	0	0	0	0	0	0	0	-4.874718	0	0	0	0
2.7785	-163.072067	1472.315552	25.645155	1.006529	0	-0.295415	0	0	0	0	0	0	0	-5.008954	0	0	0	0
